<svg width="800" height="786" viewBox="0 0 800 786" fill="none" xmlns="http://www.w3.org/2000/svg">
<path fill-rule="evenodd" clip-rule="evenodd" d="M398.98 733.333C419.187 733.333 430.603 715.697 463.15 681.167C503.833 638.007 543.06 597.787 571.54 567.573C655.637 478.37 688.7 444.52 712.163 418.11C774.523 347.927 782.613 250.41 740.323 176.381C687.003 83.053 607.49 66.6667 564.737 66.6667C521.98 66.6667 491.403 83.053 437.403 125.234L399.963 160.28L363.543 125.234C304.963 75.1627 262.549 66.6667 235.313 66.6667C212.614 66.6667 117.797 66.681 56.6955 176.381C12.1125 256.423 35.4101 355.023 92.2095 418.11C102.38 429.407 144.295 473.327 217.031 552.4C246.317 584.24 287.754 628.023 318.26 661.273C335.543 680.113 378.77 733.333 398.98 733.333Z" stroke="black" stroke-width="50"/>
</svg>
