<svg width="479" height="401" viewBox="0 0 479 401" fill="none" xmlns="http://www.w3.org/2000/svg">
<path d="M124.54 1C169.147 1.0002 205.338 37.8179 205.338 83.2725C205.338 128.727 169.147 165.545 124.54 165.545C79.9333 165.545 43.7415 128.727 43.7415 83.2725C43.7415 37.8178 79.9333 1 124.54 1Z" stroke="black" stroke-width="2"/>
<path d="M30 167.545H219.08C235.096 167.545 248.08 180.528 248.08 196.545V395.886C248.08 398.095 246.289 399.886 244.08 399.886H5C2.79095 399.886 1.00014 398.095 1 395.886V196.545C1.00001 180.528 13.9838 167.545 30 167.545Z" stroke="black" stroke-width="2"/>
<path d="M354.46 1C399.067 1.0002 435.258 37.8179 435.258 83.2725C435.258 128.727 399.067 165.545 354.46 165.545C309.853 165.545 273.662 128.727 273.662 83.2725C273.662 37.8178 309.853 1 354.46 1Z" stroke="black" stroke-width="2"/>
<path d="M259.92 167.545H449C465.016 167.545 478 180.528 478 196.545V395.886C478 398.095 476.209 399.886 474 399.886H234.92C232.711 399.886 230.92 398.095 230.92 395.886V196.545C230.92 180.528 243.904 167.545 259.92 167.545Z" stroke="black" stroke-width="2"/>
<path d="M233 89.7637C51.8791 69.0869 207.967 326.07 99 305.393" stroke="black" stroke-width="2"/>
<path d="M242 89.7582C423.121 69.1763 267.033 324.981 376 304.399" stroke="black" stroke-width="2"/>
<path fill-rule="evenodd" clip-rule="evenodd" d="M240.102 22.1097C239.93 20.8044 238.817 19.8285 237.5 19.8285C236.183 19.8285 235.07 20.8042 234.898 22.1097L234.895 22.1307L234.883 22.2176C234.871 22.2969 234.853 22.4182 234.828 22.5768C234.779 22.8943 234.701 23.3601 234.593 23.9372C234.376 25.0945 234.038 26.6839 233.554 28.4144C232.546 32.018 231.047 35.6942 229.081 37.6598C227.116 39.6254 223.44 41.1243 219.836 42.1323C218.105 42.6166 216.516 42.9547 215.359 43.1718C214.782 43.2799 214.316 43.3571 213.998 43.4067C213.84 43.4317 213.718 43.4495 213.639 43.4611L213.552 43.4731L213.534 43.4758C213.534 43.4758 213.533 43.4758 213.534 43.4758C213.533 43.4758 213.531 43.476 213.531 43.476C212.226 43.6488 211.25 44.7618 211.25 46.0785C211.25 47.3954 212.226 48.5084 213.531 48.6809L213.552 48.6838L213.639 48.6958C213.718 48.7074 213.84 48.7252 213.998 48.7502C214.316 48.7998 214.782 48.877 215.359 48.9851C216.516 49.2022 218.105 49.5403 219.836 50.0246C223.44 51.0326 227.116 52.5315 229.081 54.4971C231.047 56.4627 232.546 60.139 233.554 63.7426C234.038 65.473 234.376 67.0624 234.593 68.2198C234.701 68.7968 234.779 69.2627 234.828 69.5801C234.853 69.7386 234.871 69.8599 234.883 69.9394L234.895 70.0263L234.897 70.045C234.897 70.0447 234.897 70.0452 234.897 70.045C235.07 71.3504 236.183 72.3285 237.5 72.3285C238.817 72.3285 239.93 71.3527 240.102 70.0473L240.105 70.0263L240.117 69.9394C240.129 69.8599 240.147 69.7386 240.172 69.5801C240.221 69.2627 240.299 68.7968 240.407 68.2198C240.624 67.0624 240.962 65.473 241.446 63.7426C242.454 60.139 243.953 56.4627 245.919 54.4971C247.884 52.5315 251.561 51.0326 255.164 50.0246C256.895 49.5403 258.484 49.2022 259.641 48.9851C260.218 48.877 260.684 48.7998 261.002 48.7502C261.16 48.7252 261.281 48.7074 261.361 48.6958L261.448 48.6838L261.467 48.6811C261.466 48.6811 261.467 48.6811 261.467 48.6811C262.772 48.5087 263.75 47.3954 263.75 46.0785C263.75 44.7615 262.774 43.6485 261.469 43.476L261.448 43.4731L261.361 43.4611C261.281 43.4495 261.16 43.4317 261.002 43.4067C260.684 43.3571 260.218 43.2799 259.641 43.1718C258.484 42.9547 256.895 42.6166 255.164 42.1323C251.561 41.1243 247.884 39.6254 245.919 37.6598C243.953 35.6942 242.454 32.018 241.446 28.4144C240.962 26.6839 240.624 25.0945 240.407 23.9372C240.299 23.3601 240.221 22.8943 240.172 22.5768C240.147 22.4182 240.129 22.2969 240.117 22.2176L240.105 22.1307L240.102 22.1097ZM250.29 46.0785C247.382 45.0096 244.331 43.4962 242.206 41.3721C240.082 39.248 238.569 36.197 237.5 33.2888C236.431 36.197 234.918 39.248 232.794 41.3721C230.67 43.4962 227.619 45.0096 224.71 46.0785C227.619 47.1474 230.67 48.6607 232.794 50.7848C234.918 52.909 236.431 55.96 237.5 58.868C238.569 55.96 240.082 52.909 242.206 50.7848C244.331 48.6607 247.382 47.1474 250.29 46.0785Z" fill="#F40000"/>
</svg>
