<svg width="32" height="32" viewBox="0 0 32 32" fill="none" xmlns="http://www.w3.org/2000/svg">
<path d="M16.1092 0C12.9989 0.00224797 9.95574 0.897427 7.34655 2.5776C4.73735 4.25777 2.67357 6.65119 1.40405 9.46926C0.134536 12.2873 -0.28651 15.4097 0.191685 18.46C0.66988 21.5102 2.0269 24.358 4.09911 26.66C4.41473 27.0318 4.75111 27.3856 5.10667 27.72C5.32833 27.93 5.56007 28.14 5.80188 28.34C6.0437 28.54 6.39634 28.8 6.68853 29H6.03362C5.7664 29 5.51012 29.1054 5.32117 29.2929C5.13221 29.4804 5.02606 29.7348 5.02606 30C5.02606 30.2652 5.13221 30.5196 5.32117 30.7071C5.51012 30.8946 5.7664 31 6.03362 31H9.05629C9.32352 31 9.57979 30.8946 9.76875 30.7071C9.9577 30.5196 10.0639 30.2652 10.0639 30V27C10.0639 26.7348 9.9577 26.4804 9.76875 26.2929C9.57979 26.1054 9.32352 26 9.05629 26C8.78907 26 8.5328 26.1054 8.34384 26.2929C8.15489 26.4804 8.04874 26.7348 8.04874 27V27.47C7.74647 27.26 7.43413 27.04 7.11171 26.79C6.78929 26.54 6.71876 26.45 6.5374 26.27C6.35604 26.09 5.90264 25.66 5.60037 25.33C3.44787 22.9399 2.18699 19.8891 2.02842 16.6873C1.86986 13.4855 2.82321 10.3266 4.72918 7.73859C6.63516 5.15055 9.37829 3.29009 12.5002 2.46809C15.6221 1.64609 18.9337 1.91234 21.8816 3.22235C24.8295 4.53236 27.2352 6.80678 28.6966 9.66556C30.158 12.5243 30.5866 15.7943 29.9109 18.929C29.2351 22.0638 27.4959 24.8734 24.9839 26.8884C22.4718 28.9035 19.3391 30.0018 16.1092 30C15.1616 30.004 14.2161 29.9101 13.288 29.72C13.1557 29.6937 13.0195 29.6936 12.8871 29.7196C12.7548 29.7456 12.6288 29.7972 12.5166 29.8715C12.4043 29.9458 12.3079 30.0413 12.2328 30.1525C12.1577 30.2638 12.1054 30.3887 12.079 30.52C12.0525 30.6513 12.0524 30.7865 12.0786 30.9179C12.1047 31.0493 12.1567 31.1743 12.2316 31.2857C12.3064 31.3971 12.4027 31.4928 12.5148 31.5673C12.6269 31.6419 12.7527 31.6937 12.885 31.72C15.0803 32.1318 17.3378 32.0863 19.5143 31.5863C21.6909 31.0862 23.739 30.1427 25.5287 28.8154C27.3183 27.4882 28.8105 25.8062 29.9105 23.8763C31.0105 21.9463 31.6943 19.8105 31.9186 17.6043C32.1428 15.3982 31.9026 13.1699 31.2132 11.0607C30.5237 8.95161 29.4001 7.00774 27.9136 5.35246C26.4271 3.69717 24.6101 2.36662 22.578 1.44521C20.546 0.523799 18.3431 0.0316543 16.1092 0Z" fill="black"/>
<path d="M26.1849 16C26.1849 14.0222 25.5939 12.0888 24.4868 10.4443C23.3797 8.79981 21.8061 7.51809 19.965 6.76121C18.124 6.00433 16.0981 5.8063 14.1436 6.19215C12.1892 6.578 10.3939 7.53041 8.98477 8.92894C7.57567 10.3275 6.61606 12.1093 6.2273 14.0491C5.83853 15.9889 6.03806 17.9996 6.80065 19.8268C7.56325 21.6541 8.85466 23.2159 10.5116 24.3147C12.1685 25.4135 14.1165 26 16.1093 26C18.7815 26 21.3443 24.9464 23.2338 23.0711C25.1233 21.1957 26.1849 18.6522 26.1849 16ZM8.04881 16C8.04881 14.4178 8.52155 12.871 9.40725 11.5554C10.2929 10.2398 11.5518 9.21447 13.0247 8.60897C14.4975 8.00347 16.1182 7.84504 17.6818 8.15372C19.2454 8.4624 20.6816 9.22433 21.8089 10.3431C22.9362 11.462 23.7039 12.8874 24.0149 14.4393C24.3259 15.9911 24.1663 17.5997 23.5562 19.0615C22.9461 20.5233 21.913 21.7727 20.5874 22.6518C19.2619 23.5308 17.7035 24 16.1093 24C13.9715 24 11.9213 23.1572 10.4097 21.6569C8.89804 20.1566 8.04881 18.1217 8.04881 16Z" fill="black"/>
<path d="M17.1167 21V20.82C17.783 20.58 18.3432 20.1152 18.6993 19.5069C19.0554 18.8985 19.1847 18.1853 19.0647 17.4919C18.9446 16.7985 18.5829 16.169 18.0426 15.7135C17.5023 15.258 16.818 15.0055 16.1091 15C15.8419 15 15.5856 14.8946 15.3966 14.7071C15.2077 14.5196 15.1015 14.2652 15.1015 14C15.1015 13.7348 15.2077 13.4804 15.3966 13.2929C15.5856 13.1054 15.8419 13 16.1091 13H18.1242C18.3914 13 18.6477 12.8946 18.8367 12.7071C19.0256 12.5196 19.1318 12.2652 19.1318 12C19.1318 11.7348 19.0256 11.4804 18.8367 11.2929C18.6477 11.1054 18.3914 11 18.1242 11H17.1167C17.1167 10.7348 17.0105 10.4804 16.8216 10.2929C16.6326 10.1054 16.3763 10 16.1091 10C15.8419 10 15.5856 10.1054 15.3966 10.2929C15.2077 10.4804 15.1015 10.7348 15.1015 11V11.18C14.4352 11.42 13.875 11.8848 13.5189 12.4931C13.1628 13.1015 13.0335 13.8147 13.1535 14.5081C13.2736 15.2015 13.6353 15.831 14.1756 16.2865C14.7159 16.742 15.4002 16.9945 16.1091 17C16.3763 17 16.6326 17.1054 16.8216 17.2929C17.0105 17.4804 17.1167 17.7348 17.1167 18C17.1167 18.2652 17.0105 18.5196 16.8216 18.7071C16.6326 18.8946 16.3763 19 16.1091 19H14.094C13.8268 19 13.5705 19.1054 13.3815 19.2929C13.1926 19.4804 13.0864 19.7348 13.0864 20C13.0864 20.2652 13.1926 20.5196 13.3815 20.7071C13.5705 20.8946 13.8268 21 14.094 21H15.1015C15.1015 21.2652 15.2077 21.5196 15.3966 21.7071C15.5856 21.8946 15.8419 22 16.1091 22C16.3763 22 16.6326 21.8946 16.8216 21.7071C17.0105 21.5196 17.1167 21.2652 17.1167 21Z" fill="black"/>
</svg>
