<svg width="32" height="32" viewBox="0 0 32 32" fill="none" xmlns="http://www.w3.org/2000/svg">
<path fill-rule="evenodd" clip-rule="evenodd" d="M29.0609 13.088C28.5548 8 25.4854 0 15.9998 0C6.51427 0 3.44493 8 2.93881 13.088C1.16335 13.7484 -0.00777872 15.4189 3.89003e-05 17.28V19.52C3.89003e-05 21.9942 2.04675 24 4.57144 24C7.09614 24 9.1428 21.9942 9.1428 19.52V17.28C9.1346 15.4591 8.00648 13.8229 6.2857 13.136C6.61223 10.192 8.21221 3.2 15.9998 3.2C23.7875 3.2 25.3711 10.192 25.6977 13.136C23.9804 13.8244 22.858 15.4617 22.8569 17.28V19.52C22.864 21.24 23.8717 22.8053 25.4528 23.552C24.7671 24.816 23.0202 26.528 18.7263 27.04C17.868 25.7627 16.2074 25.2592 14.763 25.8382C13.3186 26.4173 12.4942 27.917 12.7955 29.4176C13.0967 30.9183 14.4393 32 15.9998 32C17.233 31.9933 18.3572 31.3063 18.9059 30.224C25.9099 29.44 28.1466 25.904 28.8486 23.824C30.7479 23.2211 32.0252 21.4764 31.9996 19.52V17.28C32.0075 15.4189 30.8364 13.7484 29.0609 13.088ZM5.87755 19.52C5.87755 20.2269 5.29278 20.8 4.57144 20.8C3.8501 20.8 3.26534 20.2269 3.26534 19.52V17.28C3.26534 16.8227 3.51428 16.4001 3.91839 16.1715C4.3225 15.9428 4.82038 15.9428 5.22449 16.1715C5.6286 16.4001 5.87755 16.8227 5.87755 17.28V19.52ZM26.1222 17.28C26.1222 16.5731 26.7069 16 27.4283 16C28.1496 16 28.7344 16.5731 28.7344 17.28V19.52C28.7344 20.2269 28.1496 20.8 27.4283 20.8C26.7069 20.8 26.1222 20.2269 26.1222 19.52V17.28Z" fill="black"/>
</svg>
